<svg xmlns="http://www.w3.org/2000/svg" viewBox="0 0 200 50" fill="none">
  <defs>
    <linearGradient id="logoGradientLight" x1="0%" y1="0%" x2="100%" y2="0%">
      <stop offset="0%" style="stop-color:#3b82f6;stop-opacity:1" />
      <stop offset="100%" style="stop-color:#6366f1;stop-opacity:1" />
    </linearGradient>
  </defs>
  <!-- Shopping bag icon -->
  <path d="M10 14C10 11.7909 11.7909 10 14 10H26C28.2091 10 30 11.7909 30 14V38C30 40.2091 28.2091 42 26 42H14C11.7909 42 10 40.2091 10 38V14Z" fill="url(#logoGradientLight)"/>
  <path d="M15 18V14C15 11.2386 17.2386 9 20 9C22.7614 9 25 11.2386 25 14V18" stroke="white" stroke-width="2" stroke-linecap="round"/>
  <circle cx="17" cy="28" r="2" fill="white"/>
  <circle cx="23" cy="28" r="2" fill="white"/>
  <path d="M17 32C17 32 18.5 34 20 34C21.5 34 23 32 23 32" stroke="white" stroke-width="1.5" stroke-linecap="round"/>
  <!-- Text -->
  <text x="42" y="35" font-family="Inter, system-ui, sans-serif" font-size="28" font-weight="700" fill="white">
    <tspan fill="url(#logoGradientLight)">L</tspan>arek
  </text>
</svg>
